<svg width="19" height="26" viewBox="0 0 19 26" fill="none" xmlns="http://www.w3.org/2000/svg">
<path d="M17.5885 7.9842C17.5384 7.38271 17.2878 6.83135 16.8868 6.43036C16.4858 6.02937 15.9595 5.77875 15.3329 5.77875H14.0046V4.6259C14.0046 3.3728 13.5034 2.24501 12.6764 1.44303C11.8493 0.615985 10.7215 0.114746 9.49348 0.114746C8.24039 0.114746 7.1126 0.615985 6.31062 1.44303C5.48357 2.24501 4.98233 3.3728 4.98233 4.6259V5.77875H3.65405C3.0275 5.77875 2.5012 6.02937 2.10021 6.43036C1.69922 6.83135 1.4486 7.38271 1.39847 7.9842L0.0701904 22.8209C0.0701904 22.8961 0.0701904 22.9712 0.0701904 22.9963C0.0701904 23.5477 0.295748 24.074 0.696739 24.4499C1.07267 24.8008 1.57391 25.0514 2.10021 25.1015H2.12527C2.20046 25.1015 2.27564 25.1015 2.32577 25.1015H16.6612C16.7113 25.1015 16.7865 25.1015 16.8617 25.1015C17.4131 25.0514 17.9143 24.8008 18.2902 24.4499C18.6912 24.074 18.9168 23.5477 18.9168 22.9712C18.9168 22.9211 18.9168 22.871 18.9168 22.7958L17.5885 7.9842ZM6.36074 4.6259C6.36074 3.74873 6.71161 2.97181 7.28803 2.39538C7.86446 1.81896 8.64138 1.46809 9.51855 1.46809C10.3957 1.46809 11.1726 1.81896 11.7491 2.39538C12.3255 2.97181 12.6764 3.74873 12.6764 4.6259V5.77875H6.36074V4.6259ZM17.5133 22.9963C17.5133 23.1968 17.4381 23.3722 17.2878 23.4975C17.1374 23.6479 16.9118 23.7482 16.7113 23.7732C16.7113 23.7732 16.6863 23.7732 16.6361 23.7732H2.32577C2.27564 23.7732 2.25058 23.7732 2.25058 23.7732H2.22552C1.99996 23.7482 1.79947 23.6479 1.64909 23.4975C1.49872 23.3722 1.42354 23.1968 1.42354 22.9963V22.9211L2.75182 8.10951C2.77688 7.83383 2.90219 7.58321 3.07762 7.40777C3.228 7.2574 3.42849 7.15715 3.65405 7.15715H4.98233V10.2147C4.98233 10.5906 5.28308 10.8914 5.65901 10.8914C6.03493 10.8914 6.33568 10.5906 6.33568 10.2147V7.15715H12.6012V10.2147C12.6012 10.5906 12.9019 10.8914 13.2778 10.8914C13.6538 10.8914 13.9545 10.5906 13.9545 10.2147V7.15715H15.2828C15.5084 7.15715 15.7088 7.2574 15.8592 7.40777C16.0347 7.58321 16.16 7.83383 16.185 8.10951L17.5133 22.9462V22.9963Z" fill="black"/>
</svg>
